<svg xmlns="http://www.w3.org/2000/svg" width="800" height="459" viewBox="0 0 800 459"><g fill="#D8D8D8"><path d="M157.4 48.524v-5.89H82.453v-5.352H68v6.424H48.726v11.242h-8.565v6.424H21.425v8.03H15v4.818h5.89v6.424h14.454v-5.62h16.06v-4.55h9.636v4.013h15.257v30.782H72.55v10.974h-5.354v13.383h-8.298v24.358h5.622v13.383h6.156v-5.353h7.494v10.707H66.393v6.424h4.818v6.692h5.354v-5.354h7.495v10.44h5.887v13.383h6.157v5.353h12.58v7.764h10.708v5.62h13.116v5.352h6.96v6.96h5.887v6.158h6.692v-6.424h-4.818V211h-5.355v5.62h-7.227V204.84h5.89v-6.156h-11.51v4.818h-10.975v-5.086h-8.03v-13.116h6.692v-11.778h5.89v-6.156h11.776v5.62h4.284v-6.423h13.918v12.313h5.62V162.55h7.495v-7.494h11.242V140.87h5.888v-4.55h6.693v-5.89h10.974v-5.888h6.96v-6.157h7.763v5.62h5.353V103.13h8.565v3.48h5.62v-6.157H246V87.07h-3.48v2.677h-3.21V63.78h5.62v-6.69h-5.354v-8.834h5.62V43.17H234.22v5.622h-5.353v12.044h6.424v13.116h-6.155v-5.89h-4.55V56.287h-9.368v6.156H211.2v17.934h-7.76v4.55h-5.086v7.495h-6.424l-4.685 4.685H183.9V92.69h5.084V85.46h-8.564v-5.354h-6.69v-9.635h7.493v-6.96h14.72v-5.62h12.582v-8.566h-6.692V34.873h-9.636v13.383"/><path d="M143.75 30.857v5.622h10.706v5.352h22.75v-5.62h-10.973v-5.087M209.06 36.48v12.847h5.354v-6.96h17.934v-5.62h-4.55V29.25h-18.47M227.797 13.46v4.817h6.69v5.62h16.597v-4.014h5.086v4.283h8.564v6.69h11.243v6.426h8.298v5.888h-5.888v5.89h-7.495v19.27h17.933v-4.014h6.424V56.82h13.383v-7.226h17.398v-6.96h13.384V36.48h5.354V19.347h12.044v-5.89M166.5 229.11h41.043v11.78h7.14v7.493h18.914v17.488h11.063v6.068h18.2v5.71h7.853v7.85h5.71v17.13h-4.64v24.983h-5.71v12.494h-13.92v6.068h-6.78v18.2h-4.996v13.92h-7.494V384h-5.354v12.848h-6.782v5.353h-4.64v13.566h-6.422v5.71h4.282v24.98h-3.927v-7.136h-6.78v-10.707h-5.71v-4.998h-7.85v-7.85h6.78v-13.564h-5.353v-11.776h-7.14v-7.85h5.712v-6.78h-5.354V326.54h-5.354v-4.28h-7.138v-6.426h-4.997v-12.49h-6.066v-11.422h-6.423v-32.475h3.926v-23.554h7.494M248.14 50.933h5.085v4.55h-5.085zM364.977 81.045v4.818h4.416v7.227h-5.085v5.89h18.87v-5.086h-5.22V88.94h-4.684v-8.028M397.498 80.644h4.015v5.754h-6.558v-3.613h2.275"/><path d="M752.96 48.792v-5.354h-57.548v-6.424h-61.83v-6.692h-36.94l-4.95-4.952h-39.75v5.755H538.56v5.89h-26.5v6.155h-25.695v6.156H477.8v-5.62h-6.156v11.24h-7.228V43.974h-18.2v-7.495H432.83v5.086h-19.004v7.762h-5.354v5.62h-7.228v7.228H390.27v9.368h18.736v14.454h-5.086v5.89h-13.65v8.832h-7.495v6.424h-16.06v4.015h10.975v11.777h-24.358v17.934h7.228v6.424h-1.518l-.178 7.227h-6.424v9.635h-7.14v8.21h-4.995v6.423h-6.78v14.275H327.1v4.996h7.494v11.42H327.1v20.7h8.21v11.064h16.415v12.49h12.135v-9.28h27.48v10.35h9.993v23.913h9.28v11.777h4.995v19.63h-7.852v21.41h7.852v26.413h5.354v18.914h27.124v-18.558h13.918v-13.92h7.14v-16.06h6.78v-7.85h12.847v-16.776h-7.493V280.5h8.922v-13.206h11.776V251.95h10.35v-21.414h-15.703v-10.352h-9.278v-12.847h-11.777V194.13h-6.78v-13.2h-8.21v-8.208h8.923v6.067h6.78v11.776h6.425v12.848h6.782v11.064h8.208v7.494h7.852v-7.14h12.67v-3.566h6.156v-5.354h7.227v-7.228h6.424v-4.818h-5.353v-7.494h-18.2v-5.62h-6.692s.535-6.692 0-6.692h-5.62v-5.62h5.085v3.478h5.62v5.62h20.076v7.496h24.356v6.156h7.227v6.96h9.904v23.822h8.833v12.312h10.975v-16.326h5.085v-11.51h12.045v-7.764h3.748v-7.763h10.17v9.37h5.89v15.257h5.62v-4.818h6.157v29.98h7.763v-17.13h6.156v5.086h5.353v5.084h5.354v-4.55h8.03v-13.116h-7.228V211h-5.355v-12.314h16.06v-6.69h14.723v-13.117h5.62v-17.4h-4.015v-5.353h-7.494V148.9h6.423v-5.353h-10.707v-12.313h4.283v2.41h11.24v8.03h6.425v12.847h6.156v-30.514h6.692v-19.27h-4.282v-9.637h-5.89v-6.96h-12.044V75.558h25.695v-6.96h14.724V86h7.762v6.958h6.156v5.354h5.354V81.18h-12.848v-6.693h5.62v-6.69h12.58V56.018h12.046V48.79H752.96zM415.03 81.045l3.346-.268V73.95h2.142V61.908h6.825v-5.89h4.55v7.228h-4.147v10.17h5.62v-4.95h12.447v6.557h-14.187v5.487h-5.22v5.62H415.03v-5.085zm54.203 79.9H426.54v5.486h-5.89v-4.817h-7.092v-6.69h-5.755v-7.228h-6.156v-4.685h-18.335v5.22h-12.58v-5.487l5.486.134V130.03h8.297v-4.685h24.225v7.896h4.952v10.172h6.558v4.684h8.298V137.39h-8.967v-7.63h-5.486v-5.352h-3.48v-5.22h4.685v5.89h5.888v5.22h4.417v6.29h7.494v10.304h7.895v-14.99h3.88V148.9h24.36v12.044zm12.18-32.12h-34.53v-4.15h6.156v-11.51h4.95v4.952h5.89v-5.487h6.96v12.18h10.572v4.014zm31.584 13.115h-13.92v-7.227h4.953v-7.227h-3.614v-4.15h-3.747v-4.817h4.282v-6.425h5.354v4.684h-3.48v7.36h3.748v6.022h6.424v11.778z"/><path d="M731.103 130.252h7.136v10.35h8.922v8.03h-7.85v6.78h-13.74v11.42h-7.318v-17.308h12.67M637.864 249.008v5.353h6.157v6.96h5.622v10.707h6.156v13.116h13.115v-13.918h-6.96v-9.37h-9.367v-6.69h-6.692v-6.157"/><path d="M652.854 242.852v8.03h5.353v8.565h5.085v-10.172h-4.817v-6.423M675.07 260.518v12.847h9.1v6.692h13.65v-11.243h9.102v-7.76h-6.424v-20.075h-5.89v7.76h-5.62v11.51M738.373 267.076v11.643h10.038v5.085h6.826v7.093h6.826v6.157h5.888v-5.49h7.362v5.49h6.022v7.76h6.29v-7.627h-4.283v-12.713h-8.564v-5.62h-5.487v-6.293h-24.226v-5.085M682.03 340.998v42.29h5.888v-5.175h18.558v-5.53h24.626v10.706h6.423v6.778h7.316v7.317h9.46v-7.317h13.74v-11.42h6.423v-5.71h6.425V365.8h6.424v-19.093h-5.89v-11.242h-5.888v-19.092h-4.64v-12.85h-7.852v19.63h-12.134V303.7h-12.49v8.21h-6.96v4.64h-6.245v-7.138h-6.068v16.416H707.19v7.317h-11.6v7.496M501.086 322.617h-7.228v29.444h6.157v-12.58h7.227v-13.652h7.763v-21.95h-6.96v19.007"/></g></svg>
