<?xml version="1.0" encoding="utf-8"?>

<!-- Generator: Adobe Illustrator 16.0.3, SVG Export Plug-In . SVG Version: 6.00 Build 0)  -->

<!DOCTYPE svg PUBLIC "-//W3C//DTD SVG 1.1//EN" "http://www.w3.org/Graphics/SVG/1.1/DTD/svg11.dtd">

<svg version="1.1" id="Layer_1" xmlns="http://www.w3.org/2000/svg" xmlns:xlink="http://www.w3.org/1999/xlink" x="0px" y="0px"

	 width="127.56px" height="127.559px" viewBox="30 5 127.56 127.559" enable-background="new 0 0 127.56 127.559"

	 xml:space="preserve">

<polygon fill="#40C17B" points="107.075,88.822 89.291,106.716 106.893,124.401 124.681,106.534 "/>

<path fill="#40C17B" d="M71.253,88.462c-3.714,1.563-7.812,2.417-12.104,2.417c-17.287,0-31.315-13.714-31.315-32.247v-0.196

	c0-18.729,14.028-32.443,31.315-32.443c17.293,0,31.122,13.714,31.122,32.443c0,4.146-0.724,8.03-1.959,11.595l18.718,18.829

	c5.658-9.213,8.59-19.907,8.59-30.424c0-27.225-19.775-56-56.471-56c-36.69,0-56.476,28.776-56.476,55.808v0.192

	c0,27.421,19.785,56.196,56.476,56.196c11.854,0,21.913-3.041,30.143-8.041L71.253,88.462z"/>

</svg>

