<svg xmlns="http://www.w3.org/2000/svg" viewBox="0 0 49.999999 49.999999" height="50" width="50" fill="#45d48b"><path d="M46.646 13.063c-2.235-3.83-5.268-6.863-9.098-9.1C33.718 1.73 29.536.614 25 .614s-8.72 1.116-12.55 3.35c-3.83 2.237-6.862 5.27-9.097 9.1C1.118 16.893 0 21.076 0 25.61 0 31.06 1.59 35.958 4.77 40.31c3.178 4.35 7.285 7.362 12.32 9.033.585.11 1.02.033 1.3-.227.284-.26.424-.586.424-.976l-.016-1.758c-.01-1.108-.016-2.074-.016-2.898l-.75.13c-.476.087-1.08.124-1.806.114-.726-.01-1.48-.086-2.262-.228-.78-.14-1.508-.466-2.18-.976-.674-.51-1.15-1.177-1.433-2l-.325-.75c-.217-.5-.558-1.053-1.025-1.66-.466-.608-.938-1.02-1.416-1.237l-.228-.163c-.152-.11-.292-.24-.423-.39-.13-.153-.227-.305-.293-.457-.065-.152-.01-.277.163-.375.174-.098.488-.146.944-.146l.65.098c.435.087.972.347 1.612.78.64.435 1.166 1 1.578 1.693.5.89 1.1 1.568 1.807 2.035.705.466 1.416.7 2.132.7.716 0 1.334-.055 1.855-.163.52-.108 1.01-.272 1.465-.488.195-1.456.727-2.573 1.595-3.354-1.237-.13-2.35-.326-3.337-.587-.987-.26-2.007-.684-3.06-1.27-1.052-.586-1.926-1.314-2.62-2.18-.694-.87-1.264-2.01-1.71-3.42-.444-1.41-.666-3.037-.666-4.882 0-2.626.856-4.86 2.57-6.706-.802-1.974-.727-4.188.228-6.64.63-.196 1.563-.05 2.8.44 1.237.488 2.143.906 2.718 1.253.575.346 1.036.64 1.384.88 2.018-.565 4.1-.848 6.25-.848 2.148 0 4.23.283 6.25.847l1.237-.78c.846-.522 1.845-1 2.994-1.434 1.15-.434 2.03-.553 2.64-.358.975 2.453 1.062 4.666.26 6.64 1.713 1.845 2.57 4.08 2.57 6.706 0 1.845-.223 3.477-.667 4.9-.444 1.42-1.02 2.56-1.724 3.417-.707.858-1.586 1.58-2.638 2.165-1.053.586-2.073 1.01-3.06 1.27-.988.26-2.1.456-3.337.586 1.128.976 1.692 2.517 1.692 4.622v6.868c0 .39.136.716.408.976.27.26.7.336 1.285.227 5.035-1.67 9.142-4.682 12.32-9.033 3.18-4.35 4.77-9.25 4.77-14.697 0-4.535-1.12-8.717-3.354-12.547z"/></svg>
