<svg xmlns="http://www.w3.org/2000/svg" viewBox="0 0 50 50" fill="#45d48b"><path d="M14.13 0C6.34 0 0 6.34 0 14.13v21.74C0 43.66 6.34 50 14.13 50h21.74C43.66 50 50 43.66 50 35.87V14.13C50 6.34 43.66 0 35.87 0H14.13zm0 2.174h21.74c6.615 0 11.956 5.34 11.956 11.956v21.74c0 6.615-5.34 11.956-11.956 11.956H14.13c-6.615 0-11.956-5.34-11.956-11.956V14.13c0-6.615 5.34-11.956 11.956-11.956zm25 6.522c-1.2 0-2.173.973-2.173 2.174 0 1.2.973 2.173 2.173 2.173 1.2 0 2.174-.973 2.174-2.173 0-1.2-.973-2.174-2.174-2.174zM25 11.956c-7.19 0-13.043 5.853-13.043 13.044 0 7.19 5.852 13.043 13.043 13.043 7.19 0 13.043-5.852 13.043-13.043 0-7.19-5.852-13.043-13.043-13.043zm0 2.174c6.016 0 10.87 4.854 10.87 10.87 0 6.016-4.854 10.87-10.87 10.87-6.016 0-10.87-4.854-10.87-10.87 0-6.016 4.854-10.87 10.87-10.87z" style="line-height:normal;-inkscape-font-specification:Sans;text-indent:0;text-align:start;text-transform:none;block-progression:tb" /></svg>
