<svg xmlns="http://www.w3.org/2000/svg" viewBox="0 0 50 50"><path d="M49.467 11.348c-.054-.07-.107-.143-.17-.207-.055-.06-.112-.117-.173-.17-.15-.13-.31-.247-.49-.34L35.63 4.043l-.773-.39c0-.002-.003-.002-.004-.003-.24-.122-.5-.215-.764-.28-.287-.07-.583-.11-.88-.11-1.302 0-2.526.683-3.194 1.78L28.09 8.204l-5.723 9.42-3.084-6.042c-.24-.388-.57-.692-.965-.892L5.262 4.078l-.01-.005-.41-.207C4.3 3.59 3.738 3.45 3.177 3.45 1.366 3.45 0 4.916 0 6.86v29.41c0 1.602 1.033 3.29 2.457 4.01l11.847 5.998c.603.306 1.22.462 1.835.462 1.984 0 3.426-1.565 3.426-3.72v-9.488l23.913 12.12-.002-.01.838.424c.73.37 1.462.556 2.175.556 2.034 0 3.51-1.515 3.51-3.602V12.863c0-.567-.203-1.087-.533-1.515zM17.392 43.02c0 .968-.517 1.546-1.253 1.546-.26 0-.55-.073-.855-.226l-11.847-6c-.696-.352-1.264-1.284-1.264-2.07V6.86c0-.776.413-1.237 1.002-1.237.21 0 .44.06.684.182l.415.21.006.002 13.055 6.61c.024.012.04.034.057.052v30.34zM31.074 7.48l.795-1.31c.284-.467.81-.736 1.336-.736.126 0 .25.02.374.05.095.022.192.056.294.107l13.772 6.974s0 .002.002.002l.013.007c.01.004.01.015.018.02.07.053.098.147.05.224l-13.713 22.57-1.4 2.306-9.086-17.795 7.544-12.42zM19.566 31.094V16.917L29.33 36.04l-8.783-4.447-.98-.498zm28.26 11.925c0 .91-.54 1.428-1.334 1.428-.355 0-.762-.103-1.193-.322l-1.964-.994-8.78-4.447 13.27-21.843V43.02z"/></svg>
