<svg xmlns="http://www.w3.org/2000/svg" viewBox="0 0 50 50" height="50" width="50" fill="#45d48b"><path d="M50 9.495c-1.84.816-3.816 1.365-5.895 1.615 2.12-1.27 3.748-3.282 4.514-5.674-1.984 1.175-4.183 2.03-6.517 2.488-1.87-1.995-4.535-3.24-7.485-3.24-5.666 0-10.26 4.594-10.26 10.258 0 .803.092 1.586.268 2.337C16.1 16.85 8.542 12.764 3.482 6.56 2.6 8.078 2.094 9.84 2.094 11.72c0 3.558 1.808 6.698 4.563 8.538-1.683-.053-3.263-.516-4.647-1.284v.13c0 4.972 3.537 9.112 8.226 10.058-.858.236-1.764.36-2.7.36-.662 0-1.305-.063-1.932-.185 1.31 4.072 5.095 7.042 9.583 7.124-3.51 2.752-7.932 4.39-12.74 4.39-.83 0-1.646-.046-2.447-.143 4.537 2.91 9.93 4.61 15.724 4.61 18.868 0 29.188-15.634 29.188-29.185 0-.448-.01-.89-.03-1.33 2.008-1.44 3.744-3.25 5.118-5.307"/></svg>
